<svg id="Layer_1" data-name="Layer 1" xmlns="http://www.w3.org/2000/svg" viewBox="0 0 279.7 286.85"><title>logo-2</title><path d="M17.32,121h249.5l-3,6.44L139.85,202l-115-67.75A15.38,15.38,0,0,1,17.32,121Z" style="fill:#fff"/><path d="M54.23,106.62l-2.61-3h0v3H50.7v-6.8h.91v3.05h0l2.45-3h1.1l-2.74,3.29,3,3.45Z" style="fill:#3e8ede"/><path d="M56.73,104.37A1.48,1.48,0,0,0,58,106h.27a2.41,2.41,0,0,0,1.19-.34l.26.61a2.82,2.82,0,0,1-1.62.51,2.34,2.34,0,0,1-2.32-2.61,2.23,2.23,0,0,1,1.94-2.49h.12c1.28,0,2,1,2,2.52v.24Zm1.09-2a1.18,1.18,0,0,0-1.1,1.25h2.17a1.17,1.17,0,0,0-1-1.3h-.07Z" style="fill:#3e8ede"/><path d="M61.71,104.37A1.48,1.48,0,0,0,63,106h.22a2.41,2.41,0,0,0,1.19-.34l.26.61a2.82,2.82,0,0,1-1.62.51,2.34,2.34,0,0,1-2.32-2.61,2.23,2.23,0,0,1,1.94-2.49h.12c1.28,0,2,1,2,2.52v.24Zm1.09-2a1.18,1.18,0,0,0-1.1,1.25h2.17a1.17,1.17,0,0,0-1-1.3h0Z" style="fill:#3e8ede"/><path d="M67.67,106.72a2.09,2.09,0,0,1-.78-.14v2.49H66v-7.12a4.92,4.92,0,0,1,1.69-.33,2.3,2.3,0,0,1,2.49,2.5,2.47,2.47,0,0,1-2.33,2.6Zm0-4.31a2.47,2.47,0,0,0-.75.11v3.27a1.74,1.74,0,0,0,.74.16c1,0,1.59-.69,1.59-1.81a1.53,1.53,0,0,0-1.31-1.72h-.27Z" style="fill:#3e8ede"/><path d="M72.49,100.2a.62.62,0,0,1-.61.61.6.6,0,1,1,.61-.61Zm-1.06,6.41v-4.87h.89v4.88Z" style="fill:#3e8ede"/><path d="M77,106.62v-3c0-.57-.09-1.21-.8-1.21a2.34,2.34,0,0,0-1.42.68v3.49h-.91v-4.84h.76l.11.56a2.77,2.77,0,0,1,1.73-.68c.71,0,1.44.48,1.44,1.73v3.27Z" style="fill:#3e8ede"/><path d="M81.11,109.06c-1.46,0-2.3-.66-2.3-1.45a1.37,1.37,0,0,1,.92-1.2.66.66,0,0,1-.34-.61,1.28,1.28,0,0,1,.58-.92,1.67,1.67,0,0,1-.81-1.48,1.79,1.79,0,0,1,1.8-1.78h0a1.86,1.86,0,0,1,.89.18.09.09,0,0,0,.12,0,1.68,1.68,0,0,1,1.41-.36l-.23.76a1.08,1.08,0,0,0-.7,0,1.7,1.7,0,0,1,.53,1.26,2,2,0,0,1-2.58,1.68.75.75,0,0,0-.21.51c0,.72,3.36,0,3.36,1.83C83.62,108.29,82.86,109.06,81.11,109.06Zm-.79-2.39a1,1,0,0,0-.6.81c0,.47.58.87,1.5.87s1.43-.31,1.43-.79C82.61,106.76,80.89,106.87,80.32,106.67Zm-.23-3.27a1,1,0,0,0,.9,1.09h.1a1,1,0,0,0,1-1v-.07a1,1,0,0,0-.94-1.06H81a1,1,0,0,0-1,1h0Z" style="fill:#3e8ede"/><path d="M89.52,100.2a1.35,1.35,0,0,0-.6-.13c-.43,0-.63.28-.63.78v.89h1.28l-.29.74h-1v4.13H87.4v-4.13h-.64v-.74h.64v-.8a1.44,1.44,0,0,1,1.24-1.61h.29a1.85,1.85,0,0,1,.8.19Z" style="fill:#3e8ede"/><path d="M93.22,106.62l-.2-.46a2.08,2.08,0,0,1-1.47.57A1.47,1.47,0,0,1,90,105.34h0v-.11c0-1,.71-1.56,2-1.6h1v-.19a.91.91,0,0,0-.81-1H92a2.13,2.13,0,0,0-1.28.42l-.37-.67a2.85,2.85,0,0,1,1.78-.56,1.54,1.54,0,0,1,1.76,1.69V105a5.75,5.75,0,0,0,.1,1.67ZM93,104.31h-.89c-.8,0-1.13.3-1.13.79a.8.8,0,0,0,.77.83h.13a1.53,1.53,0,0,0,1.12-.47Z" style="fill:#3e8ede"/><path d="M101.41,106.62v-3.14c0-.61-.12-1.06-.75-1.06a2.26,2.26,0,0,0-1.42.67,1.91,1.91,0,0,1,0,.25v3.28h-.92V103.5c0-.61-.13-1.08-.76-1.08a2.19,2.19,0,0,0-1.41.68v3.52h-.92v-4.88H96l.11.57a2.83,2.83,0,0,1,1.72-.69,1.26,1.26,0,0,1,1.23.79,2.81,2.81,0,0,1,1.76-.79,1.39,1.39,0,0,1,1.51,1.58v3.42Z" style="fill:#3e8ede"/><path d="M104.9,100.2a.62.62,0,0,1-.61.61.6.6,0,1,1,.61-.61Zm-1.06,6.41v-4.87h.91v4.88Z" style="fill:#3e8ede"/><path d="M107.22,106.72a.86.86,0,0,1-.94-1v-6.4h.91v6c0,.42.1.54.38.54a.89.89,0,0,0,.29,0l.11.67A1.49,1.49,0,0,1,107.22,106.72Z" style="fill:#3e8ede"/><path d="M110.06,100.2a.62.62,0,0,1-.61.61.6.6,0,1,1,.61-.61ZM109,106.61v-4.87h.91v4.88Z" style="fill:#3e8ede"/><path d="M112.16,104.37a1.48,1.48,0,0,0,1.37,1.58h.17a2.41,2.41,0,0,0,1.19-.34l.26.61a2.82,2.82,0,0,1-1.62.51,2.34,2.34,0,0,1-2.32-2.61,2.23,2.23,0,0,1,1.94-2.49h.12c1.28,0,2,1,2,2.52v.24Zm1.09-2a1.18,1.18,0,0,0-1.1,1.25h2.17a1.17,1.17,0,0,0-1-1.3h-.05Z" style="fill:#3e8ede"/><path d="M117.55,106.72a2.84,2.84,0,0,1-1.57-.4l.33-.69a2.28,2.28,0,0,0,1.23.38c.57,0,1-.25,1-.66,0-1.08-2.23-.69-2.23-2.39,0-.74.57-1.34,1.7-1.34a3.17,3.17,0,0,1,1.29.26v.78a3,3,0,0,0-1.26-.3c-.47,0-.84.16-.84.56,0,1,2.27.71,2.27,2.34C119.44,106.3,118.56,106.72,117.55,106.72Z" style="fill:#3e8ede"/><path d="M124.64,106.72a1,1,0,0,1-1.1-1.07v-3.18h-.81v-.73h.81v-1.09l.92-.29v1.38H126l-.3.73h-1.21v2.87c0,.4.15.59.47.59a1.52,1.52,0,0,0,.85-.32l.27.62A2.55,2.55,0,0,1,124.64,106.72Z" style="fill:#3e8ede"/><path d="M130.62,102.28a3,3,0,0,1,0,3.8,2.37,2.37,0,0,1-3.2,0,3,3,0,0,1,0-3.86,2.32,2.32,0,0,1,3.23,0Zm-3,1.89c0,1.08.52,1.8,1.37,1.8s1.35-.73,1.35-1.8-.49-1.79-1.37-1.79-1.34.71-1.34,1.78Z" style="fill:#3e8ede"/><path d="M134.13,109.06c-1.46,0-2.3-.66-2.3-1.45a1.37,1.37,0,0,1,.92-1.2.66.66,0,0,1-.34-.61,1.28,1.28,0,0,1,.58-.92,1.67,1.67,0,0,1-.81-1.48,1.79,1.79,0,0,1,1.8-1.78h.08a1.86,1.86,0,0,1,.89.18.09.09,0,0,0,.12,0,1.68,1.68,0,0,1,1.41-.36l-.23.76a1.08,1.08,0,0,0-.7,0,1.7,1.7,0,0,1,.53,1.26,2,2,0,0,1-2.58,1.68.75.75,0,0,0-.21.51c0,.72,3.36,0,3.36,1.83C136.64,108.29,135.88,109.06,134.13,109.06Zm-.81-2.39a1,1,0,0,0-.6.81c0,.47.58.87,1.5.87s1.43-.31,1.43-.79C135.63,106.76,133.91,106.87,133.32,106.67Zm-.23-3.27a1,1,0,0,0,.9,1.09h.1a1,1,0,0,0,1-1v-.07a1,1,0,0,0-.94-1.06H134a1,1,0,0,0-1,1h0Z" style="fill:#3e8ede"/><path d="M138,104.37a1.48,1.48,0,0,0,1.35,1.58h.16a2.41,2.41,0,0,0,1.19-.34l.26.61a2.82,2.82,0,0,1-1.62.51,2.34,2.34,0,0,1-2.32-2.61,2.23,2.23,0,0,1,1.94-2.49h0c1.28,0,2,1,2,2.52v.24Zm1.09-2a1.18,1.18,0,0,0-1.1,1.25h2.17a1.17,1.17,0,0,0-1-1.3h-.05Z" style="fill:#3e8ede"/><path d="M143.71,106.72a1,1,0,0,1-1.1-1.07v-3.18h-.81v-.73h.81v-1.09l.92-.29v1.38H145l-.3.73h-1.22v2.87c0,.4.15.59.47.59a1.52,1.52,0,0,0,.85-.32l.27.62A2.55,2.55,0,0,1,143.71,106.72Z" style="fill:#3e8ede"/><path d="M149.14,106.62v-3c0-.59-.1-1.2-.82-1.2a2.29,2.29,0,0,0-1.39.68v3.49H146v-7.3h.91v3a2.68,2.68,0,0,1,1.68-.68c.71,0,1.45.42,1.45,1.79v3.21Z" style="fill:#3e8ede"/><path d="M152.14,104.37a1.48,1.48,0,0,0,1.37,1.58h.17a2.41,2.41,0,0,0,1.19-.34l.26.61a2.82,2.82,0,0,1-1.62.51,2.34,2.34,0,0,1-2.32-2.61,2.23,2.23,0,0,1,1.94-2.49h.12c1.28,0,2,1,2,2.52v.24Zm1.09-2a1.18,1.18,0,0,0-1.1,1.25h2.19a1.17,1.17,0,0,0-1-1.3h-.07Z" style="fill:#3e8ede"/><path d="M158.86,102.63a1.07,1.07,0,0,0-.51-.11,1.65,1.65,0,0,0-1,.54v3.57h-.92v-4.89h.76l.11.55a1.93,1.93,0,0,1,1.37-.67,1,1,0,0,1,.56.16Z" style="fill:#3e8ede"/><path d="M63.32,56.74a.27.27,0,0,1-.37,0,3.84,3.84,0,0,0-1.57-1.11,5.82,5.82,0,0,0-4.46.06A5.57,5.57,0,0,0,55.11,57a5.8,5.8,0,0,0-1.19,1.9,6.89,6.89,0,0,0-.42,2.42,7.48,7.48,0,0,0,.4,2.52,5.68,5.68,0,0,0,1.15,2,5.16,5.16,0,0,0,1.79,1.27,5.86,5.86,0,0,0,2.35.45,5.19,5.19,0,0,0,2.4-.53,4.74,4.74,0,0,0,1.53-1.21.27.27,0,0,1,.36,0l2,1.37a.27.27,0,0,1,.07.37h0a7.66,7.66,0,0,1-2.5,2,8.67,8.67,0,0,1-3.77.77,9.76,9.76,0,0,1-3.62-.65A8.18,8.18,0,0,1,50.86,65a9.41,9.41,0,0,1-.66-3.6,9.12,9.12,0,0,1,.7-3.64A8.1,8.1,0,0,1,52.82,55a8.53,8.53,0,0,1,2.88-1.76,10.28,10.28,0,0,1,3.62-.7,9.74,9.74,0,0,1,1.69.15,8.58,8.58,0,0,1,1.68.47,8.13,8.13,0,0,1,1.52.79,4.93,4.93,0,0,1,1,.92.27.27,0,0,1,0,.38Z" style="fill:#d9272e"/><path d="M72.89,58a4.29,4.29,0,0,1,1.91.39,3.77,3.77,0,0,1,1.31,1,4.18,4.18,0,0,1,.75,1.47,6.2,6.2,0,0,1,.24,1.71V69.5a.27.27,0,0,1-.27.27H74.52a.27.27,0,0,1-.27-.27v-6a7.8,7.8,0,0,0-.07-1,3,3,0,0,0-.3-1,2,2,0,0,0-.64-.72,1.92,1.92,0,0,0-1.1-.28,2.53,2.53,0,0,0-1.19.26,2.46,2.46,0,0,0-.83.7,3.12,3.12,0,0,0-.5,1,3.81,3.81,0,0,0-.17,1.12V69.5a.27.27,0,0,1-.27.27H66.87a.27.27,0,0,1-.27-.27V52.1a.27.27,0,0,1,.27-.27h2.31a.27.27,0,0,1,.27.27V60h0a2.73,2.73,0,0,1,.49-.7,3.85,3.85,0,0,1,.75-.62,3.92,3.92,0,0,1,1-.44A4.06,4.06,0,0,1,72.89,58Z" style="fill:#d9272e"/><path d="M79.23,54.51a1.64,1.64,0,0,1,.51-1.2A1.75,1.75,0,0,1,81,52.8a1.88,1.88,0,0,1,1.32.49,1.67,1.67,0,0,1,.08,2.36l-.08.08a1.88,1.88,0,0,1-1.32.49,1.75,1.75,0,0,1-1.29-.51A1.64,1.64,0,0,1,79.23,54.51Zm.67,3.87h2.31a.27.27,0,0,1,.27.27V69.5a.27.27,0,0,1-.27.27H79.9a.27.27,0,0,1-.27-.27V58.65A.27.27,0,0,1,79.9,58.38Z" style="fill:#d9272e"/><path d="M85.43,51.83h2.31a.27.27,0,0,1,.27.27V69.5a.27.27,0,0,1-.27.27H85.43a.27.27,0,0,1-.27-.27V52.1A.27.27,0,0,1,85.43,51.83Z" style="fill:#d9272e"/><path d="M102,69.77H99.79a.27.27,0,0,1-.27-.27V68.06h0a3.88,3.88,0,0,1-1.65,1.52,5,5,0,0,1-2.27.52,5.42,5.42,0,0,1-2.34-.49A5.36,5.36,0,0,1,91.5,68.3a5.78,5.78,0,0,1-1.18-1.91A7,7,0,0,1,90,64a6.72,6.72,0,0,1,.4-2.35,5.73,5.73,0,0,1,1.14-1.9,5.32,5.32,0,0,1,4-1.73,5,5,0,0,1,2.48.62,4.22,4.22,0,0,1,.8.57,4.6,4.6,0,0,1,.55.59h.07V52.1a.27.27,0,0,1,.27-.27H102a.27.27,0,0,1,.27.27V69.5A.27.27,0,0,1,102,69.77ZM92.85,64a4.55,4.55,0,0,0,.2,1.33,3.65,3.65,0,0,0,.61,1.19,3.16,3.16,0,0,0,1,.85,3.27,3.27,0,0,0,2.85,0,3.44,3.44,0,0,0,1.06-.84,3.67,3.67,0,0,0,.66-1.17A4,4,0,0,0,99.46,64a4.12,4.12,0,0,0-.23-1.33,3.66,3.66,0,0,0-.66-1.19,3.59,3.59,0,0,0-1.06-.85,2.91,2.91,0,0,0-1.4-.33,3.1,3.1,0,0,0-1.45.32,3,3,0,0,0-1,.84A3.68,3.68,0,0,0,93,62.67,4.44,4.44,0,0,0,92.85,64Z" style="fill:#d9272e"/><path d="M105.13,58.38h2.19a.27.27,0,0,1,.27.27v1.63h0a4.15,4.15,0,0,1,1.33-1.61,3.32,3.32,0,0,1,2-.62h.4a1.32,1.32,0,0,1,.33.06v2.61a3.92,3.92,0,0,0-.49-.1h-.39a3,3,0,0,0-1.57.36,2.85,2.85,0,0,0-.93.85,3.06,3.06,0,0,0-.45,1,3.94,3.94,0,0,0-.12.83V69.5a.27.27,0,0,1-.27.27h-2.31a.27.27,0,0,1-.27-.27V58.65a.27.27,0,0,1,.27-.27Z" style="fill:#d9272e"/><path d="M123.11,64.22v.38a3.12,3.12,0,0,1,0,.38h-8.36a.27.27,0,0,0-.26.33,2.73,2.73,0,0,0,.28.8,2.86,2.86,0,0,0,.72.88,3.59,3.59,0,0,0,1,.58,3.34,3.34,0,0,0,1.19.21,3.8,3.8,0,0,0,1.8-.39,3.37,3.37,0,0,0,1-.86.27.27,0,0,1,.38,0l1.46,1.18a.27.27,0,0,1,0,.38,5.74,5.74,0,0,1-4.72,2.07,7,7,0,0,1-2.44-.42,5.76,5.76,0,0,1-1.84-1.23A5.3,5.3,0,0,1,112,66.65a6.42,6.42,0,0,1-.46-2.5,6.54,6.54,0,0,1,.46-2.5,5.58,5.58,0,0,1,3.18-3.16A6.4,6.4,0,0,1,117.6,58a6,6,0,0,1,2.2.39,4.76,4.76,0,0,1,1.74,1.16,5.4,5.4,0,0,1,1.15,1.92A7.94,7.94,0,0,1,123.11,64.22ZM120,62.94a.27.27,0,0,0,.27-.27h0a3.44,3.44,0,0,0-.14-.76,2.33,2.33,0,0,0-1.33-1.48,3,3,0,0,0-1.2-.23,3.2,3.2,0,0,0-2.17.77,2.78,2.78,0,0,0-.95,1.68.27.27,0,0,0,.24.3H120Z" style="fill:#d9272e"/><path d="M125.32,58.38h2.17a.27.27,0,0,1,.27.27h0v1.56h0a3.68,3.68,0,0,1,1.32-1.51,3.79,3.79,0,0,1,2.24-.7,4.29,4.29,0,0,1,1.91.39,3.77,3.77,0,0,1,1.31,1,4.18,4.18,0,0,1,.75,1.47,6.2,6.2,0,0,1,.24,1.71V69.5a.27.27,0,0,1-.27.27H133a.27.27,0,0,1-.27-.27h0v-6a8,8,0,0,0-.07-1,2.83,2.83,0,0,0-.31-1,2,2,0,0,0-.65-.72,1.92,1.92,0,0,0-1.1-.29,2.44,2.44,0,0,0-1.19.27,2.52,2.52,0,0,0-.82.7,3.11,3.11,0,0,0-.49,1,3.93,3.93,0,0,0-.17,1.13v6a.27.27,0,0,1-.27.27h-2.29a.27.27,0,0,1-.27-.27h0V58.65a.27.27,0,0,1,.27-.27Z" style="fill:#d9272e"/><path d="M141.88,58.38h2.5a.27.27,0,0,1,.26.19l2.32,8h0l2.39-8a.27.27,0,0,1,.26-.19h2.71a.27.27,0,0,1,.26.19l2.41,8h0l2.36-8a.27.27,0,0,1,.26-.19H160a.27.27,0,0,1,.25.36L156.5,69.59a.27.27,0,0,1-.25.18h-2.51a.27.27,0,0,1-.26-.19L151,61.79h0l-2.5,7.79a.27.27,0,0,1-.26.19h-2.51a.27.27,0,0,1-.25-.18l-3.81-10.85a.27.27,0,0,1,.16-.34Z" style="fill:#d9272e"/><path d="M161,54.51a1.64,1.64,0,0,1,.51-1.2,1.75,1.75,0,0,1,1.29-.51,1.88,1.88,0,0,1,1.32.49,1.67,1.67,0,0,1,.08,2.36l-.08.08a1.88,1.88,0,0,1-1.32.49,1.75,1.75,0,0,1-1.29-.51A1.64,1.64,0,0,1,161,54.51Zm.67,3.87H164a.27.27,0,0,1,.27.27h0V69.5a.27.27,0,0,1-.27.27h-2.31a.27.27,0,0,1-.27-.27h0V58.65a.27.27,0,0,1,.27-.27h0Z" style="fill:#d9272e"/><path d="M165.25,60.39V58.65a.27.27,0,0,1,.27-.27H167a.27.27,0,0,0,.27-.27h0V55.35a.27.27,0,0,1,.27-.27h2.26a.27.27,0,0,1,.27.27h0v2.76a.27.27,0,0,0,.27.27h2.31a.27.27,0,0,1,.27.27h0v1.74a.27.27,0,0,1-.27.27h-2.3a.27.27,0,0,0-.27.27h0v5a2.59,2.59,0,0,0,.27,1.26q.27.5,1.22.5a3.55,3.55,0,0,0,.62-.06,2.48,2.48,0,0,0,.59-.18l.09,2a.27.27,0,0,1-.18.27,5.19,5.19,0,0,1-.71.16,6.38,6.38,0,0,1-1,.08,4.55,4.55,0,0,1-1.85-.32,2.8,2.8,0,0,1-1.13-.88,3.24,3.24,0,0,1-.57-1.28,7.45,7.45,0,0,1-.15-1.55v-5a.27.27,0,0,0-.27-.27h-1.46a.27.27,0,0,1-.27-.27h0Z" style="fill:#d9272e"/><path d="M180.46,58a4.29,4.29,0,0,1,1.91.39,3.77,3.77,0,0,1,1.31,1,4.17,4.17,0,0,1,.75,1.47,6.2,6.2,0,0,1,.24,1.71V69.5a.27.27,0,0,1-.27.27h-2.31a.27.27,0,0,1-.27-.27h0v-6a7.84,7.84,0,0,0-.07-1,3,3,0,0,0-.3-1,2,2,0,0,0-.64-.72,1.92,1.92,0,0,0-1.1-.28,2.53,2.53,0,0,0-1.19.26,2.47,2.47,0,0,0-.83.7,3.13,3.13,0,0,0-.5,1,3.81,3.81,0,0,0-.17,1.12V69.5a.27.27,0,0,1-.27.27h-2.31a.27.27,0,0,1-.27-.27h0V52.1a.27.27,0,0,1,.27-.27h2.31a.27.27,0,0,1,.27.27h0V60h0a2.73,2.73,0,0,1,.49-.7,3.85,3.85,0,0,1,.75-.62,3.91,3.91,0,0,1,1-.44A4.06,4.06,0,0,1,180.46,58Z" style="fill:#d9272e"/><path d="M63.32,79A.27.27,0,0,1,63,79a3.84,3.84,0,0,0-1.57-1.11A5.82,5.82,0,0,0,57,78a5.57,5.57,0,0,0-1.84,1.31,5.8,5.8,0,0,0-1.19,1.95,6.89,6.89,0,0,0-.42,2.42,7.48,7.48,0,0,0,.4,2.52,5.68,5.68,0,0,0,1.15,2,5.16,5.16,0,0,0,1.79,1.27,5.86,5.86,0,0,0,2.35.45,5.19,5.19,0,0,0,2.4-.53A4.74,4.74,0,0,0,63.13,88a.27.27,0,0,1,.36-.05l2,1.37a.27.27,0,0,1,.07.37h0A7.66,7.66,0,0,1,63,91.64a8.67,8.67,0,0,1-3.77.77,9.76,9.76,0,0,1-3.62-.65,8.18,8.18,0,0,1-4.69-4.63,9.41,9.41,0,0,1-.66-3.6,9.12,9.12,0,0,1,.7-3.64,8.1,8.1,0,0,1,1.92-2.76,8.53,8.53,0,0,1,2.88-1.76,10.28,10.28,0,0,1,3.59-.6,9.74,9.74,0,0,1,1.69.15,8.58,8.58,0,0,1,1.68.47,8.13,8.13,0,0,1,1.52.79,4.93,4.93,0,0,1,1,.92.27.27,0,0,1,0,.38Z" style="fill:#d9272e"/><path d="M74.15,90.55h-.07A3.18,3.18,0,0,1,72.7,91.8a4.67,4.67,0,0,1-2.16.49,6.19,6.19,0,0,1-1.44-.18,4.26,4.26,0,0,1-1.38-.59,3.44,3.44,0,0,1-1-1.09,3.14,3.14,0,0,1-.4-1.68,2.84,2.84,0,0,1,.72-2,4.68,4.68,0,0,1,1.86-1.16A10.51,10.51,0,0,1,71.39,85q1.39-.13,2.72-.13V84.6a1.76,1.76,0,0,0-.79-1.6,3.26,3.26,0,0,0-1.84-.51,4.13,4.13,0,0,0-1.73.38,4.89,4.89,0,0,0-1.17.74.27.27,0,0,1-.38,0h0l-1.12-1.32a.27.27,0,0,1,0-.38,6.44,6.44,0,0,1,2-1.18,7.65,7.65,0,0,1,2.57-.45,6.32,6.32,0,0,1,2.5.43,4.08,4.08,0,0,1,1.55,1.12,4,4,0,0,1,.79,1.54,6.68,6.68,0,0,1,.23,1.71v6.66a.27.27,0,0,1-.27.27h-2a.27.27,0,0,1-.27-.27Zm0-3.75h-.64q-.69,0-1.45.06a6.33,6.33,0,0,0-1.4.26,3,3,0,0,0-1.07.57,1.26,1.26,0,0,0-.43,1,1.21,1.21,0,0,0,.18.68,1.37,1.37,0,0,0,.46.44,2.07,2.07,0,0,0,.64.24,3.64,3.64,0,0,0,.71.07,3,3,0,0,0,2.17-.78,2.94,2.94,0,0,0,.76-2.14Z" style="fill:#d9272e"/><path d="M113.9,86.45v.38a3.12,3.12,0,0,1,0,.38h-8.38a.27.27,0,0,0-.26.33,2.73,2.73,0,0,0,.28.8,2.86,2.86,0,0,0,.72.88,3.59,3.59,0,0,0,1,.58,3.34,3.34,0,0,0,1.19.21,3.8,3.8,0,0,0,1.8-.39,3.37,3.37,0,0,0,1-.86.27.27,0,0,1,.38,0l1.47,1.18a.27.27,0,0,1,0,.38,5.74,5.74,0,0,1-4.72,2.07,7,7,0,0,1-2.44-.42A5.76,5.76,0,0,1,104,90.8a5.3,5.3,0,0,1-1.28-1.86,6.42,6.42,0,0,1-.46-2.5,6.54,6.54,0,0,1,.46-2.5,5.58,5.58,0,0,1,3.18-3.16,6.4,6.4,0,0,1,2.38-.44,6,6,0,0,1,2.2.39,4.76,4.76,0,0,1,1.83,1.1,5.4,5.4,0,0,1,1.15,1.92A7.94,7.94,0,0,1,113.9,86.45Zm-3.13-1.28a.27.27,0,0,0,.27-.27h0a3.44,3.44,0,0,0-.14-.76,2.33,2.33,0,0,0-1.33-1.48,3,3,0,0,0-1.2-.23,3.2,3.2,0,0,0-2.17.77,2.78,2.78,0,0,0-.95,1.68.27.27,0,0,0,.24.3h5.28Z" style="fill:#d9272e"/><path d="M79.57,80.61h2.17a.27.27,0,0,1,.27.27v1.56h0a3.68,3.68,0,0,1,1.31-1.51,3.79,3.79,0,0,1,2.22-.65,4.29,4.29,0,0,1,1.91.39,3.77,3.77,0,0,1,1.31,1,4.19,4.19,0,0,1,.75,1.47,6.21,6.21,0,0,1,.24,1.71V91.7a.27.27,0,0,1-.27.27H87.21a.27.27,0,0,1-.27-.27v-6a8.08,8.08,0,0,0-.07-1,2.82,2.82,0,0,0-.31-1,2,2,0,0,0-.65-.72,1.92,1.92,0,0,0-1.1-.29,2.44,2.44,0,0,0-1.19.31,2.52,2.52,0,0,0-.82.7,3.1,3.1,0,0,0-.49,1,3.92,3.92,0,0,0-.17,1.13v6a.27.27,0,0,1-.27.27h-2.3a.27.27,0,0,1-.27-.27V80.88A.27.27,0,0,1,79.57,80.61Z" style="fill:#d9272e"/><path d="M100.32,83.58a.26.26,0,0,1-.37,0h0a2.72,2.72,0,0,0-.84-.6,3.09,3.09,0,0,0-1.35-.32,2.86,2.86,0,0,0-1.44.34,3,3,0,0,0-1,.84A3.62,3.62,0,0,0,94.77,85a4.69,4.69,0,0,0-.19,1.32,4.43,4.43,0,0,0,.2,1.32,3.67,3.67,0,0,0,.61,1.17,3.07,3.07,0,0,0,1,.84A3,3,0,0,0,97.8,90a3.61,3.61,0,0,0,1.33-.26,2.62,2.62,0,0,0,.9-.57.26.26,0,0,1,.37,0h0l1.39,1.41a.27.27,0,0,1,0,.38,4.82,4.82,0,0,1-1.62,1,6.72,6.72,0,0,1-2.38.42A7,7,0,0,1,95.4,92a5.56,5.56,0,0,1-3.3-3.08,6.29,6.29,0,0,1-.49-2.54,6.17,6.17,0,0,1,.49-2.49A5.7,5.7,0,0,1,93.42,82a5.88,5.88,0,0,1,1.9-1.23,6.6,6.6,0,0,1,4.79,0,4.74,4.74,0,0,1,1.68,1.1.27.27,0,0,1,0,.38h0Z" style="fill:#d9272e"/><path d="M116.09,80.61h2.23a.27.27,0,0,1,.27.27v1.63h0a4.15,4.15,0,0,1,1.33-1.61,3.32,3.32,0,0,1,2-.62h.4a1.32,1.32,0,0,1,.33.06V83a3.92,3.92,0,0,0-.49-.1h-.39a3,3,0,0,0-1.57.36,2.85,2.85,0,0,0-.93.85,3.06,3.06,0,0,0-.45,1,3.94,3.94,0,0,0-.12.83v5.83a.27.27,0,0,1-.27.27h-2.31a.27.27,0,0,1-.27-.27V80.88A.27.27,0,0,1,116.09,80.61Z" style="fill:#d9272e"/><path d="M142.26,85.83a6.92,6.92,0,0,1-.52,2.74,6.15,6.15,0,0,1-1.42,2.08A6.27,6.27,0,0,1,138.18,92a8,8,0,0,1-5.36,0,6.39,6.39,0,0,1-2.15-1.32,5.93,5.93,0,0,1-1.42-2.08,7.05,7.05,0,0,1-.51-2.74V75.47a.27.27,0,0,1,.27-.27h2.45a.27.27,0,0,1,.27.27h0V85.71a5.73,5.73,0,0,0,.19,1.46,3.58,3.58,0,0,0,.63,1.29,3.24,3.24,0,0,0,1.16.93,4.69,4.69,0,0,0,3.58,0,3.25,3.25,0,0,0,1.16-.93,3.59,3.59,0,0,0,.63-1.29,5.75,5.75,0,0,0,.19-1.46V75.47a.27.27,0,0,1,.27-.27H142a.27.27,0,0,1,.27.27h0Z" style="fill:#d9272e"/><path d="M145.26,75.2h2.45a.27.27,0,0,1,.27.27h0v7h.07L155,75.29a.27.27,0,0,1,.19-.08h3.26a.27.27,0,0,1,.19.46l-7.2,7.12a.27.27,0,0,0,0,.37l7.78,8.4a.27.27,0,0,1-.2.45h-3.46a.27.27,0,0,1-.2-.09l-7.3-8.33H148v8.16a.27.27,0,0,1-.27.27h-2.45a.27.27,0,0,1-.27-.27h0V75.47A.27.27,0,0,1,145.26,75.2Z" style="fill:#d9272e"/><path d="M221.08,75.2a7.87,7.87,0,0,1-1.34-4.32.6.6,0,0,0-.24-.45l-.09-1.22a1.7,1.7,0,0,0,1.18-1.45,5.63,5.63,0,0,0,.94-.08,4.2,4.2,0,0,0-.46-1.76A5.8,5.8,0,0,1,220,62.74c0-.89.37-5,.13-5.44a5,5,0,0,0-2.6-2.3,1.71,1.71,0,1,0-1.26-.3,5.83,5.83,0,0,0-3.44.73c-.42.25-2.08,4-2.52,4.82a5.8,5.8,0,0,1-2.46,2.27,4.2,4.2,0,0,0-1.25,1.32s1.72,1.53,7.2,2.94c1.31.34,2.44.57,3.39.72a1.69,1.69,0,0,0,0,.23,1.71,1.71,0,0,0,1.43,1.55l.09,1.21a.6.6,0,0,0-.18.46A9,9,0,0,0,220,75.84c.81,1.31,1.45,2.35.41,6.57a.61.61,0,0,0,.45.74H221a.61.61,0,0,0,.59-.46C222.79,78,222,76.69,221.08,75.2Zm-10.57-11a.45.45,0,0,1-.53.35h-.09a5.64,5.64,0,0,1-1.52-.69c-.16-.1-.21-.2,0-.4.39-.43,1.48-1.2,1.81-1.49,1.26-1.1,2.5-5.43,3.5-6-2.36,5.54-2.84,7.5-3.17,8.22Zm6.76-11.78a.65.65,0,1,1-.05,0Zm1,16.5a1.46,1.46,0,0,1-.81-1,.11.11,0,0,1,.09-.13h0l.71.11a.11.11,0,0,1,.09.1v.79a.11.11,0,0,1-.07.09Z" style="fill:#3e8ede"/><path d="M229.73,66.83h-5.21a.72.72,0,0,0,0,1.44h5.21a.72.72,0,0,0,0-1.44Z" style="fill:#3e8ede"/><path d="M224.19,65.49a.71.71,0,0,0,.36-.1l4.51-2.6a.72.72,0,1,0-.61-1.31l-.11.07-4.51,2.6a.72.72,0,0,0,.36,1.34Z" style="fill:#3e8ede"/><path d="M229.06,72.3l-4.51-2.6a.72.72,0,1,0-.93,1.1l.1.07.11.07,4.51,2.6a.72.72,0,1,0,.93-1.1h0l-.1-.07Z" style="fill:#3e8ede"/><path d="M185.53,86.49h0l1.78-1a26.34,26.34,0,0,1-11.39-5.22c-.19-.15-.52-1.13-.76-1.37-.81-.83-1-.53-1.8-1.79-.27-.43-.62-.41-.71-.32-.43.48.86,1.94.16,2.26-.18.08-.44,0-.74-.39a3,3,0,0,1-.6-2.19c0-.51-.61-.25-.66.17,0,.11-.15.84-.17,1-.14-.24-.11-1-.31-1.18s-.56.16-.57.63c-.13,4.08,3.48,4.26,4.25,5a112.1,112.1,0,0,0,9.66,8V89.7A3.72,3.72,0,0,1,185.53,86.49Z" style="fill:#d9272e"/><path d="M222.59,76.83a2.22,2.22,0,0,0-.69-1.12A.83.83,0,0,0,221,75c-.13.64-.07,1.19-.3,1.15-.93-.17-.46-1.44-1.56-1.2-.16.15.47,1.24-.06,1.79-.83.84-.45,1.21-.77,1.82l-.13.23a18.41,18.41,0,0,1-6.71,4.71,29.56,29.56,0,0,1-3,1.1,41.8,41.8,0,0,1-12.27,1.79,45,45,0,0,1-5.1-.31l-4.34,2.51a1.27,1.27,0,0,0-.63,1.1v2.05l.8.53c1.66,1.08,1.67,3,1.67,5v6.48c0,1.12.89,1.65,2,2.19.8.39,6.65,4.05,8.43,4.93a2,2,0,0,0,2.59-1c.55-2.11,2.18-10.44,2.63-12.43,1-4.55,1.93-5,5.14-6.74a39.23,39.23,0,0,0,4.6-2.91,24,24,0,0,0,2-1.64,20.48,20.48,0,0,0,4.26-5.1q.22-.39.41-.77C222.25,79.25,222.92,78,222.59,76.83Z" style="fill:#d9272e"/><path d="M208.46,84.6a29.57,29.57,0,0,0,3-1.1l-8.14-4.72V79h0a7.41,7.41,0,0,1-1.07,2Z" style="fill:#3e8ede"/><path d="M242.59,55a1.22,1.22,0,0,0-1.66-.45h0l-6.89,4h0a1.27,1.27,0,0,1-1.27,0h0l-13.68-7.9a3.72,3.72,0,0,0-3.71,0l-13.68,7.9h0a1.27,1.27,0,0,1-1.27,0h0l-6.89-4a1.22,1.22,0,0,0-1.22,2.06l6.89,4h0a1.27,1.27,0,0,1,.63,1.1V69a9,9,0,0,1,1.83,1.72h0l.09.11h0a.94.94,0,0,0,.51.32V61.69a1.27,1.27,0,0,1,.63-1.1h0l13.68-7.9a1.27,1.27,0,0,1,1.27,0l13.68,7.9h0a1.27,1.27,0,0,1,.63,1.1v15.8a1.27,1.27,0,0,1-.63,1.1l-13.68,7.9a1.27,1.27,0,0,1-1.27,0l-.61-.35q-.92.82-2,1.64l1.42.82a1.27,1.27,0,0,1,.63,1.1v15.8a1.27,1.27,0,0,1-.63,1.1l-13.68,7.9a1.27,1.27,0,0,1-1.27,0h0l-13.68-7.9a1.27,1.27,0,0,1-.63-1.1V89.7a1.27,1.27,0,0,1,.63-1.1l4.34-2.51,4.16-2.4a8.38,8.38,0,0,1-3-1.07l-4.94,2.84-1.78,1h0a3.72,3.72,0,0,0-1.85,3.21v15.8a3.72,3.72,0,0,0,1.85,3.21l13.68,7.9h0a1.27,1.27,0,0,1,.63,1.07v8a1.22,1.22,0,1,0,2.44,0v-7.89h0a1.27,1.27,0,0,1,.63-1.06h0l13.68-7.9a3.72,3.72,0,0,0,1.85-3.21V89.7a1.27,1.27,0,0,1,.63-1.1h0l13.68-7.9a3.72,3.72,0,0,0,1.85-3.21V61.69a1.27,1.27,0,0,1,.63-1.1h0l6.89-4A1.22,1.22,0,0,0,242.59,55Z" style="fill:#3e8ede"/><path d="M203.83,76.39a3,3,0,0,1-1.4-.27.1.1,0,0,1,0-.18h0a3.15,3.15,0,0,0,1.29-.75h0a1.18,1.18,0,0,0,.18-1.27c-.08-.15-.38-.62-.43-.69s.15-.5.21-.58a.93.93,0,0,0,0-1.18c-.38-.49-.75-.36-1.14-.33a.91.91,0,0,1-.83-.35h0l-.09-.11h0a8.64,8.64,0,0,0-5.88-3.26A1.67,1.67,0,0,1,197,65.81c-1.75-.79-3.94.5-4.59,1.62a7.45,7.45,0,0,0-1.8.92,8.34,8.34,0,0,0-2.28,10.73c.93,2,1.73,1.74,1.3,3.67a3.59,3.59,0,0,0,2.09-.39,7.73,7.73,0,0,0,8.73.11A7.22,7.22,0,0,0,203.1,79h0a7.82,7.82,0,0,0,.25-.85C203.72,77.29,204.48,76.37,203.83,76.39Zm-3.88-3.6a.54.54,0,0,1-.57-.39,2.29,2.29,0,0,1,.19-1.6c.17-.3.57-.23.91,0a.36.36,0,0,0-.28,0,.6.6,0,0,0,.57,1,.48.48,0,0,0,.13-.6v.06a1.26,1.26,0,0,1,.17.72c0,.37-.32.82-1.12.82Z" style="fill:#d9272e"/><path d="M255.79,5V116.23a9.88,9.88,0,0,1-4.92,8.53L144.78,186a9.87,9.87,0,0,1-9.84,0L28.84,124.77a9.88,9.88,0,0,1-4.92-8.53V5H5V116.24a28.85,28.85,0,0,0,14.38,24.91L125.47,202.4a9.87,9.87,0,0,1,4.89,8.24v61.74a9.46,9.46,0,0,0,18.92,0V210.67a9.87,9.87,0,0,1,4.9-8.23l106.14-61.28a28.85,28.85,0,0,0,14.38-24.91V5Z" style="fill:#3e8ede"/><path d="M139.82,286.84a14.48,14.48,0,0,1-14.46-14.45V210.72a4.84,4.84,0,0,0-2.41-4L16.88,145.48A34,34,0,0,1,0,116.25V0H28.92V116.24a4.89,4.89,0,0,0,2.43,4.21l106.09,61.22a4.87,4.87,0,0,0,4.85,0l106.08-61.24a4.89,4.89,0,0,0,2.42-4.21V0H279.7V116.25a34,34,0,0,1-16.87,29.24L156.68,206.77a4.83,4.83,0,0,0-2.4,4v61.62a14.48,14.48,0,0,1-14.45,14.46ZM10,10V116.24a23.92,23.92,0,0,0,11.89,20.58L128,198.07a14.79,14.79,0,0,1,7.39,12.43v61.88a4.47,4.47,0,0,0,4.46,4.46h0a4.47,4.47,0,0,0,4.46-4.46V210.52a14.78,14.78,0,0,1,7.38-12.4l106.16-61.29a23.93,23.93,0,0,0,11.88-20.59V10h-8.91V116.23a14.93,14.93,0,0,1-7.41,12.85l-106.1,61.25a14.92,14.92,0,0,1-14.83,0L26.34,129.1a14.93,14.93,0,0,1-7.42-12.85V10Z" style="fill:#fff"/></svg>